<svg class="jss110" width="16" height="16" viewBox="0 0 1024 1024" xmlns="http://www.w3.org/2000/svg" style="display: flex; vertical-align: middle; min-width: auto;"><path d="M592.102 404.956h91.798v93.835h46.408c22.867-0.123 44.779-4.040 65.193-11.153l-1.413 0.428c11.902-3.989 22.149-8.727 31.762-14.423l-0.756 0.415c-12.073-16.543-19.896-36.888-21.493-58.958l-0.022-0.373c-2.681-28.646 3.137-65.926 22.507-88.339l9.665-11.247 11.502 9.25c29.812 21.998 50.789 54.483 57.51 91.917l0.132 0.887c12.334-3.931 26.521-6.197 41.238-6.197 23.867 0 46.342 5.959 66.019 16.471l-0.754-0.368 12.601 7.279-6.636 12.949c-25.992 50.712-80.31 66.422-133.433 63.647-79.518 198.006-252.551 291.72-462.34 291.72-108.393 0-207.778-40.523-264.468-136.732l-0.925-1.568-8.244-16.783c-14.298-31.613-22.631-68.543-22.631-107.417 0-9.73 0.522-19.338 1.539-28.799l-0.102 1.173 1.341-13.875h78.446v-93.835h91.798v-91.757h183.649v-91.798h110.163v183.649z" fill="rgb(54, 69, 72)"></path><path d="M889.506 439.609c6.153-47.843-29.639-85.403-51.838-103.219-25.59 29.585-29.558 107.107 10.576 139.734-22.4 19.893-69.599 37.923-117.964 37.923h-588.282c-0.91 7.975-1.429 17.219-1.429 26.584 0 40.13 9.535 78.033 26.463 111.567l-0.65-1.419 6.702 12.239c4.784 8.076 9.365 14.871 14.289 21.391l-0.414-0.573q36.288 2.332 66.891 1.635v0c0.622 0.004 1.357 0.007 2.094 0.007 34.074 0 66.935-5.197 97.832-14.841l-2.323 0.625c0.689-0.246 1.484-0.388 2.313-0.388 3.916 0 7.090 3.174 7.090 7.090 0 3.088-1.973 5.714-4.728 6.687l-0.049 0.015c-3.298 1.153-6.702 2.212-10.282 3.231v0c-19.88 5.804-42.944 9.736-66.723 10.962l-0.744 0.031c1.608 0-1.675 0.242-1.675 0.242-0.925 0-2.078 0.188-3.003 0.242-10.63 0.603-22.105 0.724-33.834 0.724-12.829 0-25.469-0.242-39.585-0.965l-0.362 0.242c49.022 55.095 125.659 88.138 221.733 88.138 203.328 0 375.797-90.136 452.165-292.484 54.183 5.563 106.248-8.257 129.935-54.492-16.839-8.735-36.763-13.858-57.884-13.858-20.498 0-39.869 4.826-57.040 13.402l0.74-0.334z" fill="rgb(34, 160, 200)"></path><path d="M889.506 439.609c6.153-47.843-29.639-85.403-51.838-103.219-25.59 29.585-29.558 107.107 10.576 139.734-22.4 19.893-69.599 37.923-117.964 37.923h-553.441c-2.399 77.266 26.274 135.913 76.998 171.37v0c0.622 0.004 1.357 0.007 2.094 0.007 34.074 0 66.935-5.197 97.832-14.841l-2.323 0.625c0.689-0.246 1.484-0.388 2.313-0.388 3.916 0 7.090 3.174 7.090 7.090 0 3.088-1.973 5.714-4.728 6.687l-0.049 0.015c-3.298 1.153-6.702 2.212-10.282 3.231v0c-20.362 5.949-44.024 10.046-68.409 11.436l-0.855 0.039-0.657-0.617c69.197 35.497 169.534 35.362 284.576-8.821 134.523-55.303 246.698-141.54 331.414-250.229l1.339-1.786q-1.89 0.858-3.686 1.756z" fill="rgb(55, 177, 217)"></path><path d="M143.1 575.335c3.785 28.084 11.973 53.511 23.902 76.697l-0.617-1.32 6.702 12.239c4.782 8.076 9.363 14.87 14.288 21.39l-0.414-0.572q36.288 2.332 66.905 1.635c0.622 0.004 1.357 0.007 2.094 0.007 34.074 0 66.935-5.197 97.832-14.841l-2.323 0.625c0.689-0.246 1.484-0.388 2.313-0.388 3.916 0 7.090 3.174 7.090 7.090 0 3.088-1.973 5.714-4.728 6.687l-0.049 0.015c-3.298 1.153-6.702 2.212-10.282 3.231v0c-20.345 5.868-43.977 9.883-68.326 11.198l-0.816 0.035c-0.925 0-2.547 0.067-3.486 0.12-10.617 0.59-21.984 0.965-33.714 0.965-12.829 0-25.952-0.242-40.068-0.965 49.022 55.095 126.141 88.259 222.215 88.259 174.064 0 325.515-66.073 413.411-212.055h-691.929z" fill="rgb(27, 129, 165)"></path><path d="M182.135 575.335c9.334 45.763 35.298 84.256 71.169 109.7l0.548 0.369c0.629 0.004 1.375 0.007 2.119 0.007 34.074 0 66.935-5.197 97.833-14.841l-2.323 0.625c0.689-0.246 1.484-0.388 2.313-0.388 3.916 0 7.090 3.174 7.090 7.090 0 3.088-1.973 5.714-4.728 6.687l-0.049 0.015c-3.298 1.153-6.702 2.212-10.282 3.231v0c-20.485 5.864-44.285 9.879-68.8 11.198l-0.826 0.035c69.197 35.483 169.238 34.973 284.267-9.209 75.254-30.049 140.207-68.597 198.040-115.571l-1.388 1.092h-574.983z" fill="rgb(29, 145, 180)"></path><path d="M221.841 420.198h79.626v79.559h-79.626zM228.463 426.834h6.274v66.301h-6.274zM240.259 426.834h6.528v66.301h-6.528v-66.301zM252.324 426.834h6.528v66.301h-6.528zM264.389 426.834h6.528v66.301h-6.528zM276.453 426.834h6.528v66.301h-6.528v-66.301zM288.518 426.834h6.247v66.301h-6.287zM313.666 328.4h79.559v79.559h-79.586v-79.559zM320.301 335.036h6.274v66.301h-6.341zM332.097 335.036h6.528v66.301h-6.528v-66.301zM344.162 335.036h6.528v66.301h-6.528zM356.227 335.036h6.528v66.301h-6.528zM368.291 335.036h6.528v66.301h-6.528zM380.355 335.036h6.287v66.301h-6.354z" fill="rgb(35, 163, 194)"></path><path d="M313.639 420.198h79.559v79.559h-79.559v-79.559zM320.274 426.834h6.274v66.301h-6.274zM332.070 426.834h6.528v66.301h-6.528v-66.301zM344.135 426.834h6.528v66.301h-6.528zM356.2 426.834h6.528v66.301h-6.528zM368.264 426.834h6.528v66.301h-6.528zM380.329 426.834h6.287v66.301h-6.287z" fill="rgb(52, 187, 222)"></path><path d="M405.436 420.198h79.559v79.559h-79.559zM412.059 426.834h6.274v66.301h-6.274zM423.855 426.834h6.528v66.301h-6.528zM435.92 426.834h6.528v66.301h-6.528zM447.984 426.834h6.528v66.301h-6.528zM460.048 426.834h6.542v66.301h-6.542zM472.113 426.834h6.274v66.301h-6.274z" fill="rgb(35, 163, 194)"></path><path d="M405.436 328.4h79.559v79.559h-79.559zM412.059 335.036h6.274v66.301h-6.274zM423.855 335.036h6.528v66.301h-6.528zM435.92 335.036h6.528v66.301h-6.528zM447.984 335.036h6.528v66.301h-6.528zM460.048 335.036h6.542v66.301h-6.542zM472.113 335.036h6.274v66.301h-6.274zM497.261 420.198h79.559v79.559h-79.559zM503.896 426.834h6.274v66.301h-6.274zM515.693 426.834h6.528v66.301h-6.528zM527.757 426.834h6.528v66.301h-6.528zM539.822 426.834h6.528v66.301h-6.528zM551.887 426.834h6.528v66.301h-6.528zM563.951 426.834h6.274v66.301h-6.274z" fill="rgb(52, 187, 222)"></path><path d="M497.234 328.4h79.559v79.559h-79.559zM503.869 335.036h6.274v66.301h-6.274zM515.666 335.036h6.528v66.301h-6.528zM527.731 335.036h6.528v66.301h-6.528zM539.795 335.036h6.528v66.301h-6.528zM551.86 335.036h6.528v66.301h-6.528zM563.924 335.036h6.274v66.301h-6.274z" fill="rgb(35, 163, 194)"></path><path d="M497.234 236.603h79.559v79.572h-79.559zM503.869 243.225h6.274v66.315h-6.274v-66.368zM515.666 243.225h6.528v66.315h-6.528v-66.368zM527.731 243.225h6.528v66.315h-6.528v-66.368zM539.795 243.225h6.528v66.315h-6.528v-66.368zM551.86 243.225h6.528v66.315h-6.528v-66.368zM563.924 243.225h6.274v66.315h-6.274v-66.368z" fill="rgb(52, 187, 222)"></path><path d="M589.032 420.198h79.559v79.559h-79.559zM595.654 426.834h6.287v66.301h-6.274v-66.301zM607.45 426.834h6.528v66.301h-6.515v-66.301zM619.515 426.834h6.528v66.301h-6.515zM631.58 426.834h6.528v66.301h-6.515zM643.644 426.834h6.528v66.301h-6.515zM655.708 426.834h6.274v66.301h-6.26z" fill="rgb(35, 163, 194)"></path><path d="M388.224 628.754c12.114 0.007 21.931 9.829 21.931 21.944 0 12.12-9.824 21.944-21.944 21.944s-21.944-9.824-21.944-21.944c0 0 0 0 0 0v0c0-12.12 9.824-21.944 21.944-21.944 0.004 0 0.010 0 0.014 0h-0.001z" fill="rgb(211, 236, 236)"></path><path d="M388.224 634.974c0.007 0 0.015 0 0.023 0 2.037 0 3.982 0.389 5.766 1.096l-0.106-0.037c-1.918 1.131-3.184 3.186-3.184 5.538 0 3.539 2.869 6.408 6.408 6.408 2.403 0 4.497-1.323 5.594-3.28l0.016-0.032c0.758 1.778 1.199 3.847 1.199 6.019 0 8.677-7.034 15.71-15.71 15.71s-15.71-7.034-15.71-15.71c0-8.675 7.030-15.708 15.705-15.71h0.001zM0.001 583.27h1021.009c-22.226-5.63-70.336-13.258-62.4-42.4-40.43 46.783-137.911 32.816-162.523 9.759-27.4 39.732-186.893 24.625-198.020-6.327-34.343 40.309-140.753 40.309-175.123 0-11.126 30.952-170.619 46.060-198.020 6.327-24.611 23.057-122.093 37.025-162.509-9.785 7.935 29.129-40.215 36.757-62.414 42.4z" fill="rgb(54, 69, 72)"></path><path d="M446.563 786.906c-45.125-19.576-80.538-54.471-100.299-97.984l-0.494-1.213c-21.469 5.959-46.353 9.916-71.978 11.009l-0.691 0.023q-15.939 0.884-33.513 0.898-20.282 0-42.722-1.193c49.854 49.826 111.168 88.178 224.722 88.876q12.574 0 24.987-0.469z" fill="rgb(189, 217, 215)"></path><path d="M365.972 723.098c-7.466-10.211-14.211-21.817-19.692-34.111l-0.482-1.211c-21.468 5.965-46.352 9.927-71.977 11.022l-0.692 0.023c27.025 13.851 58.735 22.642 92.325 24.27l0.532 0.021z" fill="rgb(211, 236, 236)"></path></svg>
